{"title":"WWE.Friday.Night.Smackdown.2012.02.03.HDTV.XviD-vasylius","uid":7005931,"size":872801924,"categoryP":"video","categoryS":"tv_shows","magnet":"?xt=urn:btih:52ed12e0a32e0817ac520d8763ee323bbb2dff5e&amp;dn=WWE.Friday.Night.Smackdown.2012.02.03.HDTV.XviD-vasylius&amp;tr=udp%3A%2F%2Ftracker.openbittorrent.com%3A80&amp;tr=udp%3A%2F%2Fopen.demonii.com%3A1337&amp;tr=udp%3A%2F%2Ftracker.coppersurfer.tk%3A6969&amp;tr=udp%3A%2F%2Fexodus.desync.com%3A6969","seeders":1,"leechers":0,"uploader":"HDvideos","files":1,"time":1328267685,"description":"mastitorrents.com\n &lt;a href=&quot;\nhttp://mastitorrents.com/forums/index.php&quot; rel=&quot;nofollow&quot; target=&quot;_NEW&quot;&gt;\nhttp://mastitorrents.com/forums/index.php&lt;/a&gt;\n &lt;a href=&quot;\nhttp://thepiratebay.se/user/HDvideos/0/7&quot; rel=&quot;nofollow&quot; target=&quot;_NEW&quot;&gt;\nhttp://thepiratebay.se/user/HDvideos/0/7&lt;/a&gt;\n\n&lt;a class=&quot;__cf_email__&quot; href=&quot;/cdn-cgi/l/email-protection&quot; data-cfemail=&quot;075050422941756e63667e29496e606f7329546a66646c636870692935373635293735293734294f435351295f716e432a7166747e6b6e7274474a6674736e736875&quot;&gt;[email&amp;#160;protected]&lt;/a&gt;&lt;script cf-hash='f9e31' type=&quot;text/javascript&quot;&gt;\n/* &lt;![CDATA[ */!function(){try{var t=&quot;currentScript&quot;in document?document.currentScript:function(){for(var t=document.getElementsByTagName(&quot;script&quot;),e=t.length;e--;)if(t[e].getAttribute(&quot;cf-hash&quot;))return t[e]}();if(t&amp;&amp;t.previousSibling){var e,r,n,i,c=t.previousSibling,a=c.getAttribute(&quot;data-cfemail&quot;);if(a){for(e=&quot;&quot;,r=parseInt(a.substr(0,2),16),n=2;a.length-n;n+=2)i=parseInt(a.substr(n,2),16)^r,e+=String.fromCharCode(i);e=document.createTextNode(e),c.parentNode.replaceChild(e,c)}}}catch(u){}}();/* ]]&gt; */&lt;/script&gt;rents\n\nFormat                                  : AVI \nFormat/Info                              : Audio Video Interleave \nFile size                                : 832 MiB \nDuration                                : 1h 27mn \nOverall bit rate                        : 1 336 Kbps \n\nVideo \nID                                      : 0 \nFormat                                  : MPEG-4 Visual \nFormat profile                          : Advanced Simple@L5 \nFormat settings, BVOP                    : 2 \nFormat settings, QPel                    : No \nFormat settings, GMC                    : No warppoints \nFormat settings, Matrix                  : Default (H.263) \nMuxing mode                              : Packed bitstream \nCodec ID                                : XVID \nCodec ID/Hint                            : XviD \nDuration                                : 1h 27mn \nBit rate                                : 1 199 Kbps \nWidth                                    : 624 pixels \nHeight                                  : 352 pixels \nDisplay aspect ratio                    : 16:9 \nFrame rate                              : 25.000 fps \nColor space                              : YUV \nChroma subsampling                      : 4:2:0 \nBit depth                                : 8 bits \nScan type                                : Progressive \nCompression mode                        : Lossy \nBits/(Pixel*Frame)                      : 0.218 \nStream size                              : 747 MiB (90%) \nWriting library                          : XviD 1.2.1 (UTC 2008-12-04) \n\nAudio \nID                                      : 1 \nFormat                                  : AC-3 \nFormat/Info                              : Audio Coding 3 \nMode extension                          : CM (complete main) \nCodec ID                                : 2000 \nDuration                                : 1h 27mn \nBit rate mode                            : Constant \nBit rate                                : 128 Kbps \nChannel(s)                              : 2 channels \nChannel positions                        : Front: L R \nSampling rate                            : 48.0 KHz \nBit depth                                : 16 bits \nCompression mode                        : Lossy \nStream size                              : 79.7 MiB (10%) \nAlignment                                : Aligned on interleaves \nInterleave, duration                    : 40 ms (1.00 video frame) ","torrent":{"xt":"urn:btih:52ed12e0a32e0817ac520d8763ee323bbb2dff5e","amp;dn":"WWE.Friday.Night.Smackdown.2012.02.03.HDTV.XviD-vasylius","amp;tr":["udp%3A%2F%2Ftracker.openbittorrent.com%3A80","udp%3A%2F%2Fopen.demonii.com%3A1337","udp%3A%2F%2Ftracker.coppersurfer.tk%3A6969","udp%3A%2F%2Fexodus.desync.com%3A6969"],"infoHash":"52ed12e0a32e0817ac520d8763ee323bbb2dff5e","infoHashBuffer":{"type":"Buffer","data":[82,237,18,224,163,46,8,23,172,82,13,135,99,238,50,59,187,45,255,94]},"announce":[],"urlList":[]}}